<?xml version="1.0" encoding="UTF-8" standalone="no"?>
<!-- Created with Inkscape (http://www.inkscape.org/) -->

<svg
   xmlns:dc="http://purl.org/dc/elements/1.1/"
   xmlns:cc="http://creativecommons.org/ns#"
   xmlns:rdf="http://www.w3.org/1999/02/22-rdf-syntax-ns#"
   xmlns:svg="http://www.w3.org/2000/svg"
   xmlns="http://www.w3.org/2000/svg"
   xmlns:sodipodi="http://sodipodi.sourceforge.net/DTD/sodipodi-0.dtd"
   xmlns:inkscape="http://www.inkscape.org/namespaces/inkscape"
   width="106.40922mm"
   height="39.350616mm"
   viewBox="0 0 106.40922 39.350616"
   version="1.1"
   id="svg8"
   inkscape:version="0.92.3 (2405546, 2018-03-11)"
   sodipodi:docname="logo.svg">
  <defs
     id="defs2" />
  <sodipodi:namedview
     id="base"
     pagecolor="#ffffff"
     bordercolor="#666666"
     borderopacity="1.0"
     inkscape:pageopacity="0.0"
     inkscape:pageshadow="2"
     inkscape:zoom="1.4"
     inkscape:cx="468.6621"
     inkscape:cy="-144.2854"
     inkscape:document-units="mm"
     inkscape:current-layer="g868"
     showgrid="false"
     fit-margin-top="0"
     fit-margin-left="0"
     fit-margin-right="0"
     fit-margin-bottom="0"
     inkscape:window-width="3000"
     inkscape:window-height="1955"
     inkscape:window-x="-13"
     inkscape:window-y="-13"
     inkscape:window-maximized="1" />
  <metadata
     id="metadata5">
    <rdf:RDF>
      <cc:Work
         rdf:about="">
        <dc:format>image/svg+xml</dc:format>
        <dc:type
           rdf:resource="http://purl.org/dc/dcmitype/StillImage" />
        <dc:title></dc:title>
      </cc:Work>
    </rdf:RDF>
  </metadata>
  <g
     inkscape:label="Layer 1"
     inkscape:groupmode="layer"
     id="layer1"
     transform="translate(-49.143744,-59.832656)">
    <g
       aria-label="N01S"
       style="font-style:normal;font-variant:normal;font-weight:normal;font-stretch:normal;font-size:10.58333302px;line-height:1.25;font-family:'Marvin Visions';-inkscape-font-specification:'Marvin Visions';letter-spacing:0px;word-spacing:0px;fill:#e9265e;fill-opacity:1;stroke:none;stroke-width:0.26458332"
       id="text817">
      <g
         id="g868">
        <path
           inkscape:connector-curvature="0"
           id="path849"
           style="fill:#dcd8b9;fill-opacity:1;stroke-width:0.42113245"
           d="m 49.143744,60.910755 q 3.665536,0 6.845928,0.75467 3.234298,0.754669 5.875641,2.210103 2.641342,1.401528 4.79754,3.449917 v -0.43124 -5.98345 h 9.163842 V 98.105172 H 66.662853 V 86.569513 q 0,-3.773347 -0.916385,-6.63031 -0.916384,-2.856962 -2.803057,-4.79754 -1.832769,-1.994484 -4.635825,-2.910868 v 25.874377 h -9.163842 z" />
        <path
           inkscape:connector-curvature="0"
           id="path851"
           style="font-size:33.86666489px;letter-spacing:2.11666656px;word-spacing:0px;fill:#dcd8b9;fill-opacity:1;stroke-width:0.42113245"
           d="m 94.795343,59.832656 q -4.150681,0 -7.331075,1.886673 -3.180391,1.940578 -4.959255,5.067065 -1.724958,3.126488 -1.724958,6.5225 v 11.589565 q 0,3.827251 1.724958,7.061548 1.724958,3.288202 4.905352,5.22878 3.234297,1.994484 7.384978,1.994484 4.150676,0 7.331077,-1.994484 3.2343,-1.940578 4.95925,-5.22878 1.72496,-3.234297 1.72496,-7.061548 V 73.308894 q 0,-3.396012 -1.77887,-6.5225 -1.72495,-3.126487 -4.90534,-5.067065 -3.180401,-1.886673 -7.331077,-1.886673 z m 0,8.894316 q 1.940578,0 2.964771,0.808574 1.078101,0.808575 1.455441,2.264009 0.431234,1.455433 0.431234,3.665536 v 7.546693 q 0,2.371819 -0.431234,3.935063 -0.37734,1.563243 -1.455441,2.425723 -1.024193,0.916383 -2.964771,0.916383 -1.940579,0 -3.018677,-0.916383 -1.024195,-0.86248 -1.455434,-2.425723 -0.377335,-1.563244 -0.377335,-3.935063 v -7.546693 q 0,-2.210103 0.377335,-3.665536 0.431239,-1.455434 1.455434,-2.264009 1.078098,-0.808574 3.018677,-0.808574 z" />
        <path
           inkscape:connector-curvature="0"
           id="path853"
           style="font-size:33.86666489px;letter-spacing:2.11666656px;word-spacing:0px;fill:#e9265e;fill-opacity:1;stroke-width:0.42113245"
           d="m 118.09997,69.535548 h -4.58191 v -8.624793 h 13.74576 v 37.194417 h -9.16385 z" />
        <path
           inkscape:connector-curvature="0"
           id="path855"
           style="font-size:33.86666489px;letter-spacing:2.11666656px;word-spacing:0px;fill:#dcd8b9;fill-opacity:1;stroke-width:0.42113245"
           d="m 132.15821,89.210855 h 10.94272 q 1.61714,0 2.42572,-0.646858 0.86247,-0.700765 0.86247,-1.72496 0,-1.024193 -0.75467,-1.724958 -0.70077,-0.754669 -1.77886,-1.132004 -0.10776,-0.05391 -0.21562,-0.05391 -0.054,-0.05391 -0.16172,-0.05391 -4.04287,-1.40153 -5.66002,-2.102294 -1.61715,-0.75467 -2.85696,-1.994484 -1.45543,-1.509337 -2.2101,-3.449916 -0.70076,-1.940578 -0.70076,-4.258492 0,-4.204586 2.21009,-7.115454 2.26401,-2.964771 6.03736,-3.719442 1.0781,-0.215618 2.47964,-0.269524 1.45543,-0.05391 3.18038,-0.05391 h 5.01316 v 8.894317 h -6.89982 q -1.40154,0 -2.15621,0.64686 -0.70077,0.646859 -0.70077,1.671054 0,1.024193 0.59297,1.778864 0.59295,0.700763 1.83276,1.078098 0.16171,0.05391 0.32342,0.107805 0.21563,0.05391 0.37734,0.107804 3.07259,0.916384 4.85145,1.671053 1.77886,0.700765 3.12648,1.832769 1.61715,1.401528 2.42572,3.503821 0.80858,2.048388 0.80858,4.420207 0,3.342107 -1.50933,5.983449 -1.50935,2.587438 -4.1507,4.042871 -2.58742,1.455434 -5.71391,1.455434 h -12.02081 z" />
      </g>
    </g>
  </g>
</svg>
