<?xml version="1.0" encoding="UTF-8" standalone="no"?>
<svg
   xmlns:dc="http://purl.org/dc/elements/1.1/"
   xmlns:cc="http://creativecommons.org/ns#"
   xmlns:rdf="http://www.w3.org/1999/02/22-rdf-syntax-ns#"
   xmlns:svg="http://www.w3.org/2000/svg"
   xmlns="http://www.w3.org/2000/svg"
   xmlns:sodipodi="http://sodipodi.sourceforge.net/DTD/sodipodi-0.dtd"
   xmlns:inkscape="http://www.inkscape.org/namespaces/inkscape"
   version="1.1"
   id="Layer_1"
   x="0px"
   y="0px"
   viewBox="0 0 48 48"
   style="enable-background:new 0 0 48 48;"
   xml:space="preserve"
   sodipodi:docname="red.svg"
   inkscape:version="0.92.3 (2405546, 2018-03-11)"><metadata
   id="metadata1470"><rdf:RDF><cc:Work
       rdf:about=""><dc:format>image/svg+xml</dc:format><dc:type
         rdf:resource="http://purl.org/dc/dcmitype/StillImage" /><dc:title></dc:title></cc:Work></rdf:RDF></metadata><defs
   id="defs1468" /><sodipodi:namedview
   pagecolor="#ffffff"
   bordercolor="#666666"
   borderopacity="1"
   objecttolerance="10"
   gridtolerance="10"
   guidetolerance="10"
   inkscape:pageopacity="0"
   inkscape:pageshadow="2"
   inkscape:window-width="3000"
   inkscape:window-height="1955"
   id="namedview1466"
   showgrid="false"
   inkscape:zoom="9.8333333"
   inkscape:cx="31.802144"
   inkscape:cy="-4.9680828"
   inkscape:window-x="-13"
   inkscape:window-y="-13"
   inkscape:window-maximized="1"
   inkscape:current-layer="Layer_1" />
<path
   style="fill:#d32f2f;fill-opacity:1"
   d="M38.141,9.856c-7.808-7.808-20.473-7.808-28.281,0c-7.813,7.812-7.813,20.476,0,28.285  c7.808,7.812,20.473,7.812,28.281,0C45.953,30.332,45.953,17.668,38.141,9.856z"
   id="path1455" />
<path
   style="fill:#e57373;fill-opacity:1"
   d="M9.855,38.14c1.184,1.184,2.492,2.167,3.865,2.993l9.198-15.333  c-0.144-0.086-0.284-0.185-0.407-0.312c-0.127-0.123-0.226-0.263-0.313-0.407L6.866,34.279C7.692,35.653,8.675,36.96,9.855,38.14z"
   id="path1457" />
<path
   style="fill:#e57373;fill-opacity:1"
   d="M38.141,9.856c-1.18-1.18-2.488-2.163-3.861-2.989l-9.198,15.333  c0.144,0.086,0.284,0.185,0.407,0.312c0.127,0.123,0.226,0.263,0.313,0.407l15.333-9.198C40.308,12.347,39.325,11.04,38.141,9.856z"
   id="path1459" />
<path
   style="fill:#b71c1c;fill-opacity:1"
   d="M30.366,17.634c-3.51-3.51-9.223-3.51-12.733,0c-3.513,3.51-3.513,9.223,0,12.733  c3.51,3.513,9.223,3.513,12.733,0C33.876,26.857,33.876,21.143,30.366,17.634z"
   id="path1461" />
<path
   style="fill:#ffebee;fill-opacity:1"
   d="M28.949,19.051c-2.734-2.734-7.164-2.734-9.898,0s-2.734,7.164,0,9.898s7.164,2.734,9.898,0  S31.684,21.785,28.949,19.051z M22.586,25.414c-0.781-0.781-0.781-2.047,0-2.828s2.047-0.781,2.828,0s0.781,2.047,0,2.828  S23.367,26.195,22.586,25.414z"
   id="path1463" />
</svg>